<svg xmlns="http://www.w3.org/2000/svg" width="30" height="30" fill="none"><path fill="#000" d="M24.42.45c-1.005.66-4.56 4.68-7.65 8.625-2.025 2.58-1.725 2.595-2.805-.12a214.69 214.69 0 0 1-1.425-3.72c-.705-1.92-.705-1.935-.84-1.935-.27 0-.27.495-.015 1.41.45 1.62.09.975-.585-1.035-.345-1.035-.675-1.905-.75-1.95-.285-.18-.285.255 0 1.11.165.495.3 1.095.3 1.335s.165.93.375 1.53c.405 1.185.465 1.5.24 1.26-.075-.075-.375-.81-.66-1.635-.42-1.23-.57-1.515-.84-1.545-.18-.03-.375-.165-.42-.3-.15-.405-.39-.48-.675-.225-.315.285-.345.78-.06 1.695.165.57.165.72-.015.99s-.12.54.495 2.325c.375 1.11 1.095 2.88 1.59 3.96 1.5 3.27 1.44 2.985.96 3.645-1.05 1.44-6.915 10.02-7.23 10.575-.195.345-.36.825-.36 1.08 0 .24-.21.75-.45 1.125-.48.72-.36.99.21.465.18-.18.51-.315.735-.315.405 0 .405 0 .18.45-.285.54-.285.6.015.6.135 0 .48-.255.75-.555.54-.585.615-.585.33.03-.12.27-.12.435-.015.54.24.24 1.215-.96 5.01-6.015 1.845-2.46 3.405-4.485 3.465-4.485.18-.015 2.985 5.025 3.585 6.465.915 2.16 1.02 2.37 1.2 2.37.105 0 .12-.165.06-.48l-.12-.48.555.42c.315.225.6.375.645.33.045-.045-.06-.465-.24-.93-.36-.975-.375-1.02-.135-.87.09.06.24 0 .345-.135.165-.225.225-.195.6.195.45.465.915.615.78.24-.045-.105-.225-.705-.405-1.305-.18-.615-1.2-2.85-2.265-4.98-1.08-2.13-1.935-3.96-1.905-4.08.06-.285 6.165-7.8 8.34-10.275.915-1.035 1.575-1.905 1.5-1.935-.09-.03-.45.165-.81.42-.375.255-.72.465-.765.465-.06 0 .285-.405.765-.885.615-.615.855-.96.795-1.14-.075-.18-.165-.195-.36-.09-.48.255-3.24 3.15-6.03 6.315-1.5 1.695-2.805 3.105-2.91 3.135-.105.03-.075-.06.06-.225.135-.15 1.41-1.74 2.835-3.51 1.425-1.77 3.195-3.87 3.915-4.68.735-.795 1.335-1.485 1.335-1.53 0-.045-.135-.09-.315-.09-.405 0-.885-.27-.885-.48 0-.105.18-.435.39-.735.555-.81.405-.975-.42-.435ZM21.3 5.835c-.075.165-.225.345-.33.405-.105.075-.12.03-.045-.105.315-.555.66-.825.375-.3Zm2.4.825c0 .03-.12.15-.255.255-.24.195-.255.18-.06-.06s.315-.315.315-.195Zm-9.435 3.87c.15.405.255.72.21.72-.195 0-1.29-2.625-1.275-3.06.015-.15.39.705 1.065 2.34Zm-3.18.99c1.365 2.97 1.65 3.87.825 2.55-.75-1.17-2.85-6.33-2.34-5.745.075.09.75 1.515 1.515 3.195Zm6.39 7.56c.975 1.89 1.065 2.265.21.795-.735-1.245-1.485-2.715-1.485-2.88.015-.24.48.525 1.275 2.085Zm-1.215.21c.315.78.54 1.455.495 1.5-.135.135-1.485-2.49-1.395-2.73.165-.405.315-.195.9 1.23Zm-4.995-.585c-.255.48-.6.87-.615.705 0-.165.57-.96.69-.96.045 0 0 .12-.075.255Zm.315 1.125c-.105.105-.18.12-.18.03 0-.21.18-.39.285-.285.03.045-.015.165-.105.255Zm7.695 2.715c.315.555.525 1.05.495 1.08-.06.075-1.05-1.62-1.23-2.1-.195-.525.15-.045.735 1.02Z"/></svg>