<svg xmlns="http://www.w3.org/2000/svg" width="40" height="18" fill="none"><path fill="#000" d="M8.091 7.374c1.07-1.117 2.123-2.175 3.129-3.278.668-.732 1.123-1.599 1.083-2.632A2.289 2.289 0 0 0 12.03.46c-.331-.583-.79-.603-1.235-.103-.191.215-.364.448-.537.68C8.221 3.754 5.581 5.754 2.71 7.48c-.413.248-.802.54-1.206.805a1.63 1.63 0 0 1-.378.2c-1.123.363-1.468 1.465-.75 2.41.286.375.695.496 1.13.554 2.019.27 3.973.777 5.82 1.646 1.33.626 2.493 1.477 3.382 2.681.342.464.719.904 1.094 1.343.437.51 1.11.581 1.658.194.754-.534.925-1.534.391-2.298-1.027-1.47-2.338-2.652-3.75-3.73-.133-.1-.27-.195-.427-.308.485 0 .93-.018 1.375.002 6.844.317 13.692.398 20.542.351 1.726-.011 3.451.04 5.177.034.829-.003 1.646-.142 2.352-.623.264-.18.518-.413.694-.677.35-.525.2-1.053-.38-1.294a3.485 3.485 0 0 0-1.137-.251c-1.37-.07-2.742-.105-4.114-.142-2.457-.066-4.914-.107-7.37-.188-3.135-.104-6.27-.236-9.403-.357-1.593-.06-3.187-.11-4.779-.188-1.524-.076-3.047-.18-4.539-.271Z"/></svg>