<svg xmlns="http://www.w3.org/2000/svg" width="92" height="50" fill="none"><mask id="a" width="92" height="50" x="0" y="0" maskUnits="userSpaceOnUse" style="mask-type:luminance"><path fill="#fff" d="M0 0h92v49.978H0V0Z"/></mask><g mask="url(#a)"><path fill="#46494C" d="M3.814 40.145c-.351-.834-.869-.13-1.332.037-.518.279.37.093.185.668-.055.315-.406.11-.61.167-.019-.186.092-.426-.26-.408-1.35.296-.684-.815-.148-.39.167.15.39.223.408-.055-.536-1.02.24-.297.407-.816-.777-.444.259 1.28-.203.223-.722-1 .592-.797.406.037.093.463.666-.556 1-.111.11-.297-.278-.334-.278-.334-.278-.723-.832-.074-.648-1.186 1.018.352 1.314-1.835 2.905-1.075.555-6.005-2.072-13.679-1.943-20.444-.203-1.945 1.036-3.559.389-5.319-1-.426-1-2.687-2.035-2.447 0-.556.481-1.074.924-1.371.26-.167 1.074.167.89-.5-.408-.52.406-.186.59-.39.63-.89-.37-.704-.961-.834.5-.074.333-.574.407-.946.296.223.759-.852.685-.185-.13.111.018.464-.333.408-.315.297 1.036.704.517.111-.129-.667.612-.63.575-1.038.074 0 .184-.018.203.019.167.334.333 1.278.888.76.019-.019.092.018.148.037-.166.408.593.204.426.63-.24.741.814.445.851 1.056 0 .223.333-.407.406.149.056.389.334-.019.519-.056 1.129.223 1.665-.63 2.535-1.075 1.184-.426 2.238.964 3.479.575 2.053-.055 4.015-.39 6.235-.352 9.14-.409 20.576-1.446 29.55-1.243.296-1.334.407-.444 1.277-1.018.147.351.758 0 .795.555.037.13.574.372.758.149.13-.093-.24-.501.223-.39.37.093.11-.277.296-.333.166-.056.296-.39.333.074 0 .055.148.13.221.13.334-.148.019-.63.52-.575-.02.427 2.441.204 1.331.667.537.353.573-.407 1.148-.148.147-.37.573.352.573.055-.203.093.148.316 0 .056-.222-.389.204-1.612.463-1.019.018.278.018.612-.315.704.536.445.592-.11 1.406.668.574.296.333-1.094.796-.316.036.167.036.353.278.316 7.271-.483 15.061-.297 22.222-.353.629.297 1.462-.37 1.554-1.074.241.74.833.592 1.333.722.387-.556-.112-.89.203-.926.592-.112-.149 1.408.555.834.462-.075 1.203.018 1.258.167-.074-.149-.018-.483.093-.613.129-.407.37-.055.5.204.129.39.406-.611.536.056.352.427 1.461-.148.203.871.445.074.778.353.796.834-.481.537.11.297.13.723-.777.741-1.037 3.8-1.629 1.26-.166 1.576-.703 0-1.258.612-.24.26-1.48-.852-1.314.39.074.314 1.259.129.63.611-.703-.13-.426.593-.278.909.204.778-.704 1.11-.166 1.797.591.649-.112.408-.168.945.13 2.54.37 4.912.39 7.507.35 1.705-.463 12.992 2.479 9.75.018.203-.019.444.092.573.482.279-.943.316.093.797-1.129.186 1.332 1.614-.278.927-.222-.018-.85.668-.925.871-.314.112-.647-.37-.61.242.018.296-.445.555-.019.89.13.536-.851 1.445-.204 2.223.148.483-1.258 1.612-1.61 1.742-.444.093-.74-.592-1.165-.388-.389.277-.666 2.15 0 2.28.018 0 .111.222.074.259-.203.426-.518 1.464.148 1.65-.222.148.11.685-.24.76-.926.092-.111 1.723-.87 1.26-1.37.815-.777-.278-2.11-.798.075-.871-1.165.093-.592.167.26.037.13.26.167.408-.111.204-.314-.593-.444.056 0 .296-1.184.611-.944 0 .852-.557 1.074-1.465 1.536-2.28-.315-.24-.407.39-.555-.056-.148-.24.296-.184.407-.333-.13-.741-1.073.37-1.48-.241-.39-.279.444-.463.258-.89.37-.093.093.593.482.556.258 0 .074-.296.13-.463 0-.39.666-.39-.019-.723-.018-.371.48-.315.222-1.038.055-1.427-4.792-.834-5.791-.816-2.036.093-4.072-.297-6.05 0-.723-.297-1.648-.055-2.462.149-1.092.241-2.276-.556-3.405.056-2.498.258-5.384-.316-7.642.704-.536.111-2.405-.946-2.498.148-.129.352-1.166-.352-1.202.13.148.222.37.426.592.556-.259.334-1.092-.204-1.036.426-.519 0 .333-.926-.463-.723.796-.315-.019-.686-.147-.149.314.409.221.872-.352.761-1.98-.074-.74.203-.444-.686.796-.352.037-.834-.26-.148-.758.742.204-.852-.61-.241-.056.481-.203 1.075-.778.667-1.48-.389-3.57-.297-5.328 0-.5.945 1.444-.334.777.648-.278.464-1.166.335-.777 1.002.092 1.909.148 4.077.315 6.098.11 1.093 1.22 4.393-.87 3.466-1.277-2.595-.518-6.08-1.407-8.916-.258-4.263-1.129-2.168-4.717-2.687-1.87 1.149 1.572 5.968-1.407 5.69-1.536-6.58 1.665-5.227-6.716-5.283-.408-.222-.5.316-.796.279-.815-.316-.37.537-1.555.13-.684-.037.352.5-.222.778-.204-.334-.61-.018-.833-.222-.628-.723-1.516 1.63-1.387.148.018-.111-.185.074-.019.111.685-.26-.166-.018-.259-.074-.425-1.724-6.31.37-8.03.481-.833-.018-1.647.223-2.46.075-.112.648-.426.241-.685.148-.519-.13-.666.742-1.24.315-.518-.556-.555.482-1.167.222-.591-.5-.295.39-.943.279.277-.149-.426-.223 0 0-.48.927-.184-1.076-.722-.556-.499.556-1.165-.687-1.35.277 0 .038-.259.019-.37.075-.222.167-.222.52.074.26.203 0 .518.444.592-.168.333-.111.926-.24 1.166.167.018.278-1.35.593-.925.909.314.593-.814.778-.759-.13-.185 1.15-.593-.149-.74.648.019.241-.019.371-.314.371-.556-.055 0-.26-.186-.74.037-.075-.037-.038-.11.018.11.184.258.018.387-.019-1.054-.056-.406.63-.943.537-.407-.018-.259-.148-.093-.315-.351-.259-.147-.612-.203-.927.722-.129.555-.834 1.443.111-.666-.908-.5.501.112.501-.186-.26.203-2.354-.519-1.539.519.483-.333.279-.573.316-.648-.13-.314.815-.852 1.112-1.128.853-.554-.686.167-.816-.758-.185.48-.593.222-1.168 0-.204.518.204.296-.167-.166.186-.037.39.019.613 0-.093.037-.167-.038-.446Zm47.554-6.988c-.333.075-.296-.388-.408-.61.722.61 0-.705.593-.334.019.277.11.556.407.741 7.142-.482 15.099-.926 22.426-1.835 9.085.612 4.274-3.354 4.477-11.046-.703-2.985.445-6.099-.629-8.88.24-.518.778-1.759.038-2.056.703-.13.721-.797.462-1.371-.518 1.204-.037-.871-2.35-.111 1.222.018.167 1.464-.333.89-.148-.223.093-.13.167-.168.222-.092.203-.352.074-.37-1.888-.983-.648.259-1.499-.278-.463-.52-.277.203-.666.426-.852-1.39-3.312.018-4.885-.408-.944.39.592 2.521-.796 2.891-1.35-.185-.407-2.613-1.424-2.872-2.72.073-5.33.018-8.049.389-3.72.092-7.328.148-10.862.352-.462.797-1.11-.464-1.924.426-.962-.407-1.185.686-1.925.074-1.017 1.02-.554-.574-1.683.26-.222.13-.26.149-.278-.111-.463-.26-1.592-.371-2.128.185-.425.093-.5-.741-.887-.297-.63.316-.907-.463-1.11.63-.279.964-.685-.481-1.315-.296-1.055-.185-2.72.742-3.219.222-.278.037-.111.501-.481.278-3.96-.222-7.902.334-11.86.779-.908.352-2.221-.389-2.813.537-1.425.093-4.311-.907-5.089.724-.388 4.263-1.962 22.333-1.24 24.057 1.666 2.095 25.146-1.557 32.289-2.002.221 0 .444 0 .147-.277.556-.483.333-.686.926-.204.389-.334.222.13.296.204.759.407.277-.667 1.017-.334-.499-.649.186.797-.221-.205-.167-.648.832-.388.906.149-.147-.222-.499-.167-.407.037.444.093.963-1.111 1.017-.37.26 1.13.13-.074.852.389.833-.315.87 1.038 1.35-.019.63-.908-.777 0-.24-.686 1.37-1.556 0 .612 1.073.482-.721.427.26.705.334-.185-.352.463.37-.167-.13.203Zm-42.095-18.2c-.092-.983.5-4.597-1-3.392.463.444-.351.186-.424.463-.89 4.968-.223 10.602-.019 15.07 1.868 3.039 1.146-10.844 1.443-12.141ZM74.922 34.4c.852.315 7.217-.76 3.941-1.038-2.905-.037-5.532.5-8.197.834.241 1.168 3.11-.223 4.256.204Zm-50.143 4.689c-.056-.11-.093-.24-.13-.352-.148.204-.074.407 0 .611l.13-.26ZM6.571 41.202c-.351.13.074.316.241.111a1.494 1.494 0 0 1-.24-.11Zm45.444-3.633c.037.074.093.186.13.074-.019-.093-.037-.185-.13-.074Zm3.923-33.64c.074.111.111.018.13-.075-.037-.092-.093 0-.13.075ZM4.296 41.98c-.037-.074-.093-.185-.13-.074.019.093.037.186.13.075ZM88.763 6.765c.037.074.092.184.13.074-.019-.093-.056-.185-.13-.074ZM.799 4.133c.37-.297-.111-.575-.056-.927-.13.278-.111.704-.5.593-.573.037.315.5.186.871.055.464.647.371 1.017.371C1.28 4.096.225 4.614.8 4.133Zm.24 1.964c-.203.037-.277.39-.222.594 1.37-.112 1.924-.667.222-.594Zm2.59-2.243c-.425.056-.665.316-.555.779.722.148 1.185-.241.556-.779Zm79.786 40.499c.37-.223-.48-.482-.666-.649-.074.537.111 1.057.666.649ZM2.39 5.04c-.352.834 1.054.444.684-.408-.277.037-.24.611-.684.408Zm88.316 1.037c-.519.668-.148 1.02.555.557-.333-.204-.445-.167-.555-.557Zm-6.55 37.348c.665-.056.425-.352-.111-.519-.278.075-.186.76.11.519ZM1.63 36.049c.444-.24-.073-.408-.352-.63-.091.352-.091.779.352.63ZM.928 5.263c-.37-.036-.61.5-.462.78.555-.112.443-.335.462-.78Zm1.314 36.18c-.055-.39-.241-.482-.444-.092.093.5.259.537.444.092ZM1.021 3.076c.018.316.554.723.647.241-.185-.037-.499-.39-.647-.24ZM79.289 42c.074.334.463.741.592.167-.166-.074-.462-.501-.592-.167ZM2.075 38.273c-.037.483.389.167.592.26.167-.426-.462-.63-.592-.26Zm84.56-35.827c-.48.093.037.779.518.482-.26-.26-.537-.056-.518-.482Zm-5.94 40.758c-.037.482.408.036.648-.055-.13-.464-.407-.075-.648.055ZM53.088 2.594c-.203.222.204 1.075.352.575-.092-.186-.203-.408-.352-.574Zm26.849 38.237c-.185.371-.075.687.351.594.482.018-.314-.371-.351-.594Zm4.052 2.67c-.296.13-.684.092-.833.407.37-.018.962.149.833-.408Zm2.887-41.444c.184.037.314.13.406.315.593 0-.129-.964-.406-.315ZM1.335 8.136c.223-.242-.185-.445-.277-.65-.5.168.13.408.277.65Zm86.466 21.5c.296.11.37-.427.24-.594-.147.111-.462.483-.24.594Zm-8.29 8.322c-.055.277.037 1.148.13.481-.019-.185.111-.426-.13-.481Zm8.919-5.413c-.222.186.277.871.351.353l-.351-.353ZM1.502 8.97c-.296.13-.333.204-.111.5.351-.184.221-.24.111-.5Zm6.142-3.855c.205.056.39.203.575.037-.242-.315-.333-.334-.575-.037ZM3.926 2.52c.018.352.203.149.37-.037-.074-.222-.277-.037-.37.037Zm83.153.24c.315-.018.166-.258.203-.407-.443.019-.277.093-.203.408Zm2.275 4.45c.204.166.316.073.463-.112-.184-.333-.277-.037-.463.111Zm-8.251 37.013c-.204-.148-.408-.074-.61 0 .073.037.165.093.277.13.092-.037.203-.093.333-.13Zm-73.55-1.798c.129-.166-.019-.277-.13-.426-.389.186-.037.241.13.426ZM2.63 3.725c-.148-.222-.685-.149-.48.13.24-.056.37-.093.48-.13Zm51.366-.779c.128-.167-.02-.277-.13-.426-.39.167-.038.24.13.426Zm33.768 5.376c.203-.223.148-.76-.112-.316.056.13.075.223.112.316Zm.758-.446c.093.223.166.334.426.186-.148-.13-.314-.482-.426-.186Zm-1.166 25.467c.278.111.24-.204.333-.389-.258-.074-.258.185-.333.39ZM85.562 2.595c-.166.184-.518.24-.13.407.111-.111.278-.223.13-.407Zm-6.736 35.938c.13.13.223.297.426.111-.166-.111-.407-.426-.426-.111Zm10.085-36.18c.092-.018.185-.092.222-.11.185-.575-.555 0-.222.11ZM1.945 9.378c.389-.074.242-.185 0-.408-.091.13-.129.334 0 .408Zm4.867 33.288c.13.13.24.297.425.093-.166-.13-.333-.37-.425-.093ZM2.89 40.35c.018.352.203.148.37-.038-.074-.222-.279-.037-.37.038Zm84.91-7.396c.334.056.39-.185.185-.5-.091.185-.406.37-.184.5ZM57.364 2.316c.018.353.204.149.37-.037-.056-.222-.259-.037-.37.037Zm-7.827 37.292c.11.093.297.26.37.037-.166-.185-.352-.39-.37-.037Zm39.8-10.49c-.073-.038-.166-.075-.278-.13-.591.203-.055.296.279.13Zm-.72 3.428c.165-.204.072-.314-.112-.463-.333.185-.019.278.111.463Zm-8.808 6.414c-.242.037-.13.259-.149.407.259-.111.536-.26.149-.407ZM1.224 38.68c.037.26.092.297.24.038-.073-.149-.166-.242-.24-.038Zm81.118 5.172c.037.258.093.296.241.037-.093-.149-.186-.241-.241-.037ZM2.057 6.487c.13.26.185.222.5.13-.26-.112-.296-.149-.5-.13Zm54.158-3.504c.149-.148.074-.26.019-.444-.166.166-.092.259-.019.444Zm3.238.483c.056.203.204.11.37.092-.074-.24-.184-.13-.37-.092Zm29.698-1.613c.112.185.574-.037.203-.13-.054.038-.128.075-.203.13Zm-1.572.5c-.185.112.036.575.129.205-.037-.056-.074-.13-.129-.205ZM.114 5.485c-.204.149-.111.446.11.279-.055-.167-.073-.223-.11-.279Zm79.841 32.64c.112-.055.037-.13 0-.203-.111.055-.037.111 0 .204Zm8.77-4.652c.056.111.13.037.205 0-.056-.111-.112-.037-.205 0ZM60.915 3.669c.037.093.056.185.13.074-.037-.093-.093-.185-.13-.074ZM1.612 38.403s-.037-.037-.054-.074c-.223.111-.019.297.054.074Zm85.819-5.616c-.13 0-.13.075-.037.149.13.056.074-.056.037-.149Zm-38.895 6.227c0 .13.075.13.149.038.037-.148-.074-.092-.149-.038ZM2.02 4.356c-.038-.093-.056-.186-.13-.075.02.093.074.185.13.075ZM79.382 39.2c-.13 0-.13.074-.037.148.13.038.074-.074.037-.148ZM55.457 2.91c-.037-.094-.055-.186-.13-.075.038.093.093.185.13.074ZM8.607 5.114c-.055-.111-.092-.018-.13.075.075.11.112.018.13-.075Zm-6.995-.408s-.037-.037-.054-.074c-.223.111-.019.297.054.074Zm.093 4.856c.037-.056.093-.11.13-.166-.167-.019-.241-.019-.13.166Zm-.85-1.557c0 .13.073.13.147.037.037-.148-.074-.092-.147-.037Zm2.83-3.095s-.037-.037-.055-.074c-.223.111-.037.297.055.074ZM2.094 7.172c0 .13.074.13.148.037.036-.13-.074-.074-.148-.037Zm-.98.149c.11-.056.036-.13 0-.205-.093.056-.038.112 0 .205Zm8.122 33.974c-.055-.111-.093-.019-.13.074.075.111.093.019.13-.074ZM2.446 6.987s-.038-.038-.056-.074c-.222.092-.037.296.055.074Zm77.602 34.938s-.037-.037-.056-.074c-.221.092-.037.297.056.074ZM.65 6.765c0 .13.075.13.149.037.037-.148-.074-.093-.149-.037Zm89.667-.427c-.13 0-.13.074-.037.149.148.037.093-.075.037-.149ZM1.557 5.227s.037-.037.074-.056c-.11-.223-.296-.019-.073.056Zm86.798-3.003c.037.092.056.185.13.074-.037-.093-.074-.204-.13-.074ZM9.384 6.282c.111-.055.037-.13 0-.204-.11.056-.056.13 0 .204Zm-.98 37.07c-.056-.112-.094-.019-.13.074.074.111.11.018.13-.074ZM3.332 5.115c0 .13.074.13.148.037.038-.148-.074-.092-.148-.037Zm-.888.834s-.037-.037-.055-.074c-.222.112-.037.296.055.074Zm-.351-.426c0 .13.074.13.148.037.036-.149-.074-.093-.148-.037Zm-.833 0c.037.092.055.185.13.074-.037-.093-.075-.186-.13-.074Zm80.638 39.294s-.038-.037-.056-.075c-.223.112-.019.296.055.075Zm-.334.184c0 .13.074.13.148.037.037-.128-.074-.074-.147-.037Zm-37.413-11.38c-.204-.334-.296-.592-.593-.185.186.093.5.519.593.185Zm31.584-24.28c.186.24.186.315.519.075-.241-.186-.314-.335-.519-.075Zm-33.509 23.65c-.111.26-.555.464-.111.63.13-.222.241-.39.111-.63Zm-28.662-7.896c-.258.205-.11.279.075.519.24-.333.166-.333-.075-.519ZM76.588 8.84c.222.149.296.464.61.241-.221-.11-.37-.408-.61-.24ZM42.93 33.751c.019.093.093.186.111.222.574.186-.018-.556-.11-.222Zm2.147-1.427c-.149.204-.075.408 0 .612.037-.074.092-.167.13-.279-.038-.092-.075-.204-.13-.333Zm32.639-24.56c-.203.15-.129.446.111.28-.055-.168-.074-.223-.111-.28ZM51.979 32.62s-.037-.037-.056-.074c-.222.111-.037.297.056.074ZM36.547 9.73c.055.111.092.019.13-.074-.056-.112-.093-.019-.13.074Zm41.817-1.241c-.037-.093-.055-.186-.13-.075.038.093.093.186.13.075Zm12.212-6.395c-.259.148-.351.148-.148.5.222-.203.37-.26.148-.5Zm.389.908c-.167.204-.5.241-.315.574.13-.203.462-.314.315-.574Zm.925 1.26c-.13-.222-.425-.166-.278.075.167-.037.222-.056.278-.074Zm-.795.556c.091-.018.184-.037.073-.13-.073.038-.185.075-.073.13ZM86.432.166c-.019-.018-.075.018-.093.037-.166.39.222.65.222 1 0 .02.13.057.185.038.056-.019.093-.111.166-.204-.296-.203-.11-.686-.48-.871Zm2.016.222c.019-.222-.074-.351-.296-.37-.221-.018-.351.075-.37.315-.018.222.074.352.352.37.148.02.296-.073.314-.315Zm-2.997.297c0-.092-.055-.26-.111-.278-.167-.056-.278.037-.278.241 0 .149-.037.316.166.37.186-.017.223-.166.223-.333Zm-.833 1.316c.037.111.112.204.24.148.149-.074.186-.222.13-.37-.037-.111-.111-.185-.24-.167-.148.111-.186.241-.13.389Z"/></g></svg>