<svg xmlns="http://www.w3.org/2000/svg" width="14" height="20" fill="none"><path fill="#000" d="M6.364.018C5.624.126 5.269.2 4.805.354 2.985.965 1.514 2.242.715 3.907c-1.337 2.775-.827 5.63 1.773 10.01.994 1.672 2.58 3.902 3.862 5.42.504.605.625.713.706.646.201-.169 1.095-1.27 1.928-2.372 2.525-3.345 4.124-6.294 4.79-8.8.154-.598.174-.8.174-1.813.007-1.042-.014-1.203-.175-1.8C13.041 2.583 11.046.71 8.386.138c-.477-.1-1.666-.175-2.022-.12Zm1.578 4.649c.444.174 1.015.651 1.25 1.06 1.055 1.801-.363 4.025-2.439 3.837a3.324 3.324 0 0 1-.799-.209C5.47 9.134 4.9 8.583 4.671 8.113c-.168-.336-.188-.45-.188-1.082 0-.631.02-.746.181-1.081.323-.645.9-1.136 1.633-1.384.376-.121 1.189-.074 1.645.1Z"/></svg>