<svg xmlns="http://www.w3.org/2000/svg" width="300" height="300" fill="none" style="-webkit-print-color-adjust:exact"><g style="fill:#000"><path d="M142.77 283.703c-47.591-55.489-83.399-118.471-90.511-159.196-2.258-12.933-1.538-31.845 1.642-43.136C58.886 63.672 69.421 46.563 83 34.114 127.892-7.045 199.334 1.77 232.692 52.582c16.386 24.96 20.493 53.379 12.195 84.385-10.296 38.471-44.243 95.173-87.222 145.683l-7.867 9.247Zm24.035-108.625c24.545-6.278 42.847-23.898 50.338-48.461 3.504-11.492 3.3-27.796-.495-39.459-12.019-36.943-48.726-56.768-86.445-46.688-16.699 4.463-34.421 19.339-42.456 35.64-10.667 21.64-9.869 46.758 2.133 67.142 5.211 8.851 17.91 21.035 26.828 25.742 15.155 7.998 33.772 10.259 50.097 6.084Zm-30.526-14.304c-7.714-2.078-16.825-6.886-22.358-11.799l-4.707-4.18 9.396-10.93c5.169-6.012 14.626-16.166 21.017-22.564 11.142-11.154 26.498-24.351 27.344-23.498.222.224 1.877 2.263 3.678 4.531l3.274 4.124-2.597 2.716c-4.341 4.538-7.661 13.513-11.126 30.074-3.703 17.704-7.629 27.475-12.402 30.874-3.673 2.616-4.13 2.642-11.519.652Zm13.39.982c0-.351 1.147-2.001 2.549-3.667 3.7-4.397 6.639-13.018 10.717-31.438 5.296-23.922 9.131-30.419 14.824-25.115 3.23 3.01 8.959 14.138 11.251 21.854 2.117 7.129 2.188 17.113.149 21.055-1.925 3.722-10.077 9.789-17.655 13.141-7.485 3.31-21.835 6.051-21.835 4.17Zm-45.065-23.48c-4.316-5.96-7.429-14.513-8.864-24.363-1.067-7.32-.988-8.331.911-11.6 3.124-5.375 11.694-9.974 23.439-12.577 19.912-4.413 27.017-6.434 31.604-8.987l4.655-2.592 3.514 3.406c1.933 1.873 3.389 3.703 3.236 4.068-.152.365-6.336 6.232-13.742 13.039-11.297 10.384-22.237 21.95-38.736 40.956l-2.746 3.164Zm87.927-2.894c.64-9.137-1.984-17.469-9.323-29.607-5.859-9.69-5.768-11.167.764-12.393 4.955-.929 10.049.208 14.52 3.242 4.228 2.87 5.065 2.092 1.421-1.321-4.983-4.668-11.188-5.551-19.407-2.76l-5.013 1.702-3.451-3.992-3.451-3.992 2.285-2.432c2.751-2.928 17.126-12.981 18.562-12.981 3.387 0 13.011 18.682 13.312 25.843.108 2.55.52 4.96.916 5.356 1.234 1.234.759 11.117-.867 18.014-1.525 6.467-4.724 13.609-8.748 19.53l-2.024 2.977ZM96.305 96.443c2.219-11.094 10.665-24.932 18.888-30.945 4.167-3.047 4.943-3.241 10.87-2.706 10.344.933 23.147 6.587 26.138 11.542.932 1.545.682 2.292-1.316 3.932-2.823 2.316-5.961 3.257-24.724 7.412-14.795 3.276-23.342 6.671-27.659 10.988L95.7 99.468Zm65.747-16.914-3.828-3.945 2.515-2.898c3.695-4.257 4.333-9.342 1.811-14.439l-2.08-4.204 2.754.594c4.445.959 17.185 7.428 21.077 10.703l3.591 3.02-4.117 2.482c-2.264 1.364-7.067 4.765-10.671 7.557-3.605 2.792-6.705 5.076-6.889 5.076-.185 0-2.058-1.775-4.163-3.946Zm-13.415-10.852c-7.983-4.922-15.143-7.265-22.571-7.385l-5.334-.085 6.338-3.053c7.284-3.509 14.989-5.194 23.754-5.194 7.108 0 9.93 2.11 11.09 8.29.783 4.173-2.13 10.974-4.879 11.392-.868.132-4.647-1.652-8.398-3.965Z" class="fills" style="fill:#252422"/><g class="strokes"><path d="M142.77 283.703c-47.591-55.489-83.399-118.471-90.511-159.196-2.258-12.933-1.538-31.845 1.642-43.136C58.886 63.672 69.421 46.563 83 34.114 127.892-7.045 199.334 1.77 232.692 52.582c16.386 24.96 20.493 53.379 12.195 84.385-10.296 38.471-44.243 95.173-87.222 145.683l-7.867 9.247Zm24.035-108.625c24.545-6.278 42.847-23.898 50.338-48.461 3.504-11.492 3.3-27.796-.495-39.459-12.019-36.943-48.726-56.768-86.445-46.688-16.699 4.463-34.421 19.339-42.456 35.64-10.667 21.64-9.869 46.758 2.133 67.142 5.211 8.851 17.91 21.035 26.828 25.742 15.155 7.998 33.772 10.259 50.097 6.084Zm-30.526-14.304c-7.714-2.078-16.825-6.886-22.358-11.799l-4.707-4.18 9.396-10.93c5.169-6.012 14.626-16.166 21.017-22.564 11.142-11.154 26.498-24.351 27.344-23.498.222.224 1.877 2.263 3.678 4.531l3.274 4.124-2.597 2.716c-4.341 4.538-7.661 13.513-11.126 30.074-3.703 17.704-7.629 27.475-12.402 30.874-3.673 2.616-4.13 2.642-11.519.652Zm13.39.982c0-.351 1.147-2.001 2.549-3.667 3.7-4.397 6.639-13.018 10.717-31.438 5.296-23.922 9.131-30.419 14.824-25.115 3.23 3.01 8.959 14.138 11.251 21.854 2.117 7.129 2.188 17.113.149 21.055-1.925 3.722-10.077 9.789-17.655 13.141-7.485 3.31-21.835 6.051-21.835 4.17Zm-45.065-23.48c-4.316-5.96-7.429-14.513-8.864-24.363-1.067-7.32-.988-8.331.911-11.6 3.124-5.375 11.694-9.974 23.439-12.577 19.912-4.413 27.017-6.434 31.604-8.987l4.655-2.592 3.514 3.406c1.933 1.873 3.389 3.703 3.236 4.068-.152.365-6.336 6.232-13.742 13.039-11.297 10.384-22.237 21.95-38.736 40.956l-2.746 3.164Zm87.927-2.894c.64-9.137-1.984-17.469-9.323-29.607-5.859-9.69-5.768-11.167.764-12.393 4.955-.929 10.049.208 14.52 3.242 4.228 2.87 5.065 2.092 1.421-1.321-4.983-4.668-11.188-5.551-19.407-2.76l-5.013 1.702-3.451-3.992-3.451-3.992 2.285-2.432c2.751-2.928 17.126-12.981 18.562-12.981 3.387 0 13.011 18.682 13.312 25.843.108 2.55.52 4.96.916 5.356 1.234 1.234.759 11.117-.867 18.014-1.525 6.467-4.724 13.609-8.748 19.53l-2.024 2.977ZM96.305 96.443c2.219-11.094 10.665-24.932 18.888-30.945 4.167-3.047 4.943-3.241 10.87-2.706 10.344.933 23.147 6.587 26.138 11.542.932 1.545.682 2.292-1.316 3.932-2.823 2.316-5.961 3.257-24.724 7.412-14.795 3.276-23.342 6.671-27.659 10.988L95.7 99.468Zm65.747-16.914-3.828-3.945 2.515-2.898c3.695-4.257 4.333-9.342 1.811-14.439l-2.08-4.204 2.754.594c4.445.959 17.185 7.428 21.077 10.703l3.591 3.02-4.117 2.482c-2.264 1.364-7.067 4.765-10.671 7.557-3.605 2.792-6.705 5.076-6.889 5.076-.185 0-2.058-1.775-4.163-3.946Zm-13.415-10.852c-7.983-4.922-15.143-7.265-22.571-7.385l-5.334-.085 6.338-3.053c7.284-3.509 14.989-5.194 23.754-5.194 7.108 0 9.93 2.11 11.09 8.29.783 4.173-2.13 10.974-4.879 11.392-.868.132-4.647-1.652-8.398-3.965Z" class="stroke-shape" style="fill:none;stroke-width:1.05224"/></g></g></svg>