<svg xmlns="http://www.w3.org/2000/svg" width="35" height="35" fill="none"><path fill="#DE9E36" d="M16.657 33.099c-5.553-6.474-9.73-13.822-10.56-18.573-.264-1.509-.18-3.715.191-5.033A12.114 12.114 0 0 1 9.683 3.98C14.921-.822 23.256.206 27.147 6.135c1.912 2.912 2.391 6.227 1.423 9.845-1.201 4.488-5.162 11.103-10.176 16.996l-.918 1.079-.82-.956Zm2.804-12.673c2.863-.733 4.998-2.788 5.872-5.654.41-1.34.385-3.243-.057-4.604-1.403-4.31-5.685-6.623-10.086-5.447-1.948.521-4.015 2.257-4.953 4.158-1.244 2.525-1.151 5.456.249 7.834.608 1.032 2.09 2.454 3.13 3.003 1.768.933 3.94 1.197 5.845.71Zm-3.562-1.669c-.9-.242-1.963-.803-2.608-1.377l-.55-.487 1.097-1.275a58.584 58.584 0 0 1 2.452-2.633c1.3-1.301 3.091-2.84 3.19-2.741.026.026.219.264.429.528l.382.481-.303.317c-.506.53-.894 1.577-1.298 3.509-.432 2.065-.89 3.205-1.447 3.602-.428.305-.482.308-1.344.076Zm1.562.114c0-.04.134-.233.298-.427.431-.513.774-1.52 1.25-3.668.618-2.791 1.065-3.549 1.73-2.93.376.351 1.045 1.65 1.312 2.55.247.831.255 1.996.018 2.456-.225.434-1.176 1.142-2.06 1.533-.873.386-2.548.706-2.548.486Zm-5.257-2.739c-.504-.695-.867-1.693-1.034-2.842-.125-.854-.116-.972.106-1.353.364-.628 1.364-1.164 2.735-1.468 2.323-.515 3.152-.75 3.687-1.048l.543-.303.41.398c.225.218.395.432.377.474-.017.043-.739.727-1.603 1.521-1.318 1.212-2.594 2.561-4.52 4.779l-.32.369-.381-.527Zm10.258-.337c.075-1.066-.232-2.038-1.088-3.455-.683-1.13-.673-1.302.09-1.445.578-.109 1.172.024 1.693.378.494.335.591.244.166-.154-.581-.545-1.305-.648-2.264-.322l-.585.198-.402-.465-.403-.466.267-.284c.32-.342 1.998-1.514 2.165-1.514.395 0 1.518 2.18 1.553 3.015.013.297.06.578.107.624.144.144.089 1.297-.101 2.102a7.166 7.166 0 0 1-1.02 2.279l-.237.347.059-.838Zm-11.226-4.543c.258-1.295 1.244-2.91 2.203-3.61.486-.356.577-.379 1.268-.316 1.207.109 2.7.768 3.05 1.346.108.18.08.268-.154.459-.33.27-.695.38-2.884.865-1.726.382-2.723.778-3.227 1.282l-.327.327.07-.353Zm7.67-1.974-.447-.46.294-.338c.431-.497.505-1.09.211-1.685l-.242-.49.32.07c.52.111 2.006.866 2.46 1.248l.419.352-.48.29c-.265.159-.825.556-1.245.882-.421.325-.783.592-.804.592-.022 0-.24-.207-.486-.46Zm-1.565-1.266c-.931-.574-1.767-.847-2.633-.861l-.623-.01.74-.356c.85-.41 1.748-.606 2.771-.606.83 0 1.159.246 1.294.967.091.487-.248 1.28-.57 1.329-.1.015-.541-.193-.979-.463Z"/></svg>