<svg width="37" height="53" viewBox="0 0 37 53" fill="none" xmlns="http://www.w3.org/2000/svg">
<path d="M27.8854 40.0293L27.2188 41.0726C26.9654 41.3015 26.7577 41.5971 26.5954 41.9593C24.3332 45.266 21.871 48.4271 19.2088 51.4426L18.7854 51.976C18.7353 52.0383 18.6721 52.0889 18.6004 52.1243C18.5287 52.1597 18.4501 52.179 18.3701 52.181C18.2901 52.1829 18.2107 52.1673 18.1373 52.1353C18.064 52.1034 17.9985 52.0558 17.9454 51.996L17.3054 51.2793C16.5254 50.4571 15.8299 49.6049 15.2188 48.7226C14.9477 48.3315 14.6477 47.9782 14.3188 47.6626C13.9743 47.3315 13.6799 46.9626 13.4354 46.556C13.1332 46.0515 12.8032 45.5482 12.4454 45.046C12.4254 45.0193 12.3999 45.0004 12.3688 44.9893C12.3121 44.9726 12.2421 44.926 12.2054 44.8793C9.53433 41.4282 7.13211 37.7449 4.99878 33.8293L4.33211 32.5126L3.31878 30.6293C2.59656 28.9849 1.95433 27.3815 1.39211 25.8193C0.185443 22.4682 -0.236778 19.1593 0.125444 15.8926C0.705444 10.6993 3.92544 5.8893 8.42211 2.90597C13.3188 -0.344034 19.8354 -0.854035 25.2121 1.30597C28.1877 2.50374 30.6899 4.36708 32.7188 6.89597C35.1621 9.9393 36.7354 13.9826 36.6754 17.9326C36.6588 18.9926 36.7154 20.036 36.5321 21.0993C36.061 23.8371 35.2288 26.5104 34.0354 29.1193C32.3977 32.706 30.3477 36.3426 27.8854 40.0293ZM31.6288 18.9793C31.6288 17.185 31.2754 15.4083 30.5887 13.7506C29.9021 12.0929 28.8956 10.5866 27.6269 9.31786C26.3581 8.04911 24.8519 7.04267 23.1942 6.35603C21.5365 5.66938 19.7597 5.31597 17.9654 5.31597C14.3417 5.31597 10.8664 6.75549 8.30401 9.31786C5.74164 11.8802 4.30211 15.3556 4.30211 18.9793C4.30211 22.603 5.74164 26.0784 8.30401 28.6407C10.8664 31.2031 14.3417 32.6426 17.9654 32.6426C19.7597 32.6426 21.5365 32.2892 23.1942 31.6026C24.8519 30.9159 26.3581 29.9095 27.6269 28.6407C28.8956 27.372 29.9021 25.8657 30.5887 24.208C31.2754 22.5503 31.6288 20.7736 31.6288 18.9793Z" fill="#F5F6F6"/>
<path d="M19.9406 6.71704C21.0076 8.13798 20.9781 9.39666 19.8521 10.4931C19.7263 10.6162 19.56 10.689 19.3846 10.6979C19.2093 10.7067 19.0371 10.6509 18.9007 10.541C16.848 8.88409 14.6121 8.10233 12.1931 8.19575C11.844 8.20804 11.8194 8.12568 12.1193 7.94868C14.3122 6.64821 16.8025 6.17005 19.5903 6.51422C19.7354 6.53143 19.8521 6.59904 19.9406 6.71704Z" fill="#DE9E36"/>
<path d="M19.8153 11.2711C21.3714 9.91779 21.4046 8.4907 20.468 6.84606C20.3745 6.6838 20.42 6.62357 20.6044 6.66537C22.6498 7.14229 24.4837 8.12318 26.1062 9.60803C26.2267 9.71866 26.2144 9.8133 26.0693 9.89197C24.5771 10.686 23.1218 11.7198 21.7033 12.9932C21.6822 13.0126 21.6545 13.0234 21.6258 13.0234C21.5972 13.0234 21.5695 13.0126 21.5484 12.9932C20.9412 12.4573 20.3622 11.9115 19.8116 11.3559C19.7845 11.3264 19.7858 11.2982 19.8153 11.2711Z" fill="#DE9E36"/>
<path d="M7.55416 12.7609C8.1921 11.5514 10.5779 8.09987 12.1193 8.45387C12.654 8.57556 13.2072 8.46125 13.7529 8.57556C15.6287 8.9689 17.1971 9.67937 18.4582 10.707C18.5365 10.7703 18.6001 10.8499 18.6446 10.9403C18.689 11.0307 18.7133 11.1298 18.7158 11.2307C18.7182 11.3317 18.6988 11.432 18.6588 11.525C18.6188 11.6179 18.5592 11.7011 18.4841 11.769C18.1768 12.0468 17.8289 12.2422 17.4405 12.3553C15.8204 12.8322 14.0578 13.2538 12.1525 13.6201C10.176 14.0036 7.75697 14.7006 6.56958 16.3047C6.42454 16.5013 6.37045 16.4792 6.40733 16.2383C6.58433 15.0361 6.96661 13.877 7.55416 12.7609Z" fill="#DE9E36"/>
<path d="M26.7884 10.3087C28.3371 12.0603 29.2148 14.0442 29.661 16.3194C29.6978 16.5161 29.6487 16.5419 29.5135 16.3969C29.3291 16.2002 29.1545 15.9912 28.9898 15.77C27.8541 14.2433 25.4682 14.3245 23.89 15.2832C23.6933 15.4037 23.5224 15.3742 23.3774 15.1947L22.2306 13.7603C22.0708 13.5636 22.0892 13.3841 22.2859 13.2219C23.6675 12.0738 25.0245 11.0819 26.3569 10.246C26.4252 10.2038 26.506 10.187 26.585 10.1985C26.664 10.2099 26.736 10.249 26.7884 10.3087Z" fill="#DE9E36"/>
<path d="M6.42205 17.2561C7.27756 15.5561 9.34996 14.8001 11.1163 14.4056C13.941 13.775 16.9684 13.4394 19.358 11.8022C19.4219 11.7604 19.4797 11.7665 19.5313 11.8206L21.0358 13.3325C21.0751 13.3718 21.0739 13.4087 21.0321 13.4431C16.6808 17.1208 12.7314 21.171 9.18402 25.5936C9.05619 25.7534 8.92958 25.7534 8.80421 25.5936C6.99485 23.2631 6.1504 20.6781 6.27086 17.8387C6.28061 17.6344 6.3321 17.436 6.42205 17.2561Z" fill="#DE9E36"/>
<path d="M16.7288 29.9376C13.9262 29.6905 11.415 28.3519 9.4311 26.3496C9.39068 26.3105 9.36665 26.2575 9.36391 26.2013C9.36117 26.1451 9.37992 26.09 9.41635 26.0472C13.0707 21.6479 16.9316 17.3814 21.4599 13.9852C21.6049 13.877 21.7328 13.8943 21.8434 14.0368L23.0677 15.5856C23.2053 15.7602 23.1807 15.9064 22.9939 16.0244C21.9171 16.7029 21.1133 19.0445 20.8367 20.2799C20.463 21.9491 20.0771 23.7179 19.6788 25.5862C19.3506 27.1276 18.65 28.8055 17.0901 29.8491C16.9795 29.9203 16.8591 29.9498 16.7288 29.9376Z" fill="#DE9E36"/>
<path d="M27.0908 25.4977C27.8209 22.013 26.1726 19.1588 24.3399 16.3489C24.279 16.2566 24.2401 16.1515 24.2261 16.0417C24.2122 15.9318 24.2237 15.8202 24.2596 15.7153C24.2955 15.6103 24.355 15.5149 24.4334 15.4362C24.5119 15.3575 24.6073 15.2976 24.7123 15.2611C26.4602 14.6588 27.9561 15.0423 29.2001 16.4116C29.6057 16.859 29.8061 17.3974 29.8011 18.0268C29.7766 20.9252 28.9186 23.4364 27.2272 25.5604C27.092 25.7301 27.0465 25.7092 27.0908 25.4977Z" fill="#DE9E36"/>
<path d="M17.9715 29.6794C19.1515 28.7538 19.8042 26.7883 20.1287 25.3834C20.5761 23.4339 21.0247 21.4672 21.4746 19.4833C21.6959 18.5061 22.2674 16.6808 23.4069 16.4116C23.4741 16.3957 23.5442 16.3965 23.611 16.4138C23.6778 16.4312 23.7394 16.4646 23.7904 16.5111C25.8591 18.4065 28.3519 24.9114 25.8444 26.9838C23.6908 28.7649 20.7777 30.1293 18.0378 29.9006C17.8289 29.8834 17.8067 29.8097 17.9715 29.6794Z" fill="#DE9E36"/>
<path d="M33.2305 18.1153C33.2305 20.1002 32.8396 22.0658 32.08 23.8996C31.3203 25.7335 30.207 27.3998 28.8034 28.8034C27.3998 30.207 25.7335 31.3203 23.8996 32.0799C22.0658 32.8396 20.1002 33.2305 18.1153 33.2305C14.1064 33.2305 10.2618 31.638 7.42716 28.8034C4.5925 25.9687 3 22.1241 3 18.1153C3 14.1064 4.5925 10.2618 7.42716 7.42716C10.2618 4.5925 14.1064 3 18.1153 3C20.1002 3 22.0658 3.39097 23.8996 4.15058C25.7335 4.91019 27.3998 6.02358 28.8034 7.42716C30.207 8.83074 31.3203 10.497 32.08 12.3309C32.8396 14.1648 33.2305 16.1303 33.2305 18.1153ZM19.9664 6.61749C19.8779 6.49949 19.7611 6.43188 19.6161 6.41467C16.8283 6.0705 14.338 6.54865 12.1451 7.84913C11.8452 8.02613 11.8698 8.10849 12.2189 8.09619C14.6379 8.00278 16.8738 8.78454 18.9265 10.4415C19.0629 10.5513 19.2351 10.6071 19.4104 10.5983C19.5857 10.5895 19.7521 10.5166 19.8779 10.3935C21.0038 9.29711 21.0333 8.03842 19.9664 6.61749ZM20.4937 6.74655C21.4304 8.3912 21.3972 9.81828 19.841 11.1716C19.8115 11.1987 19.8103 11.2269 19.8373 11.2564C20.388 11.812 20.967 12.3578 21.5742 12.8937C21.5953 12.9131 21.6229 12.9239 21.6516 12.9239C21.6803 12.9239 21.708 12.9131 21.7291 12.8937C23.1475 11.6203 24.6029 10.5865 26.0951 9.79247C26.2402 9.7138 26.2525 9.61915 26.132 9.50852C24.5095 8.02367 22.6755 7.04278 20.6302 6.56586C20.4458 6.52407 20.4003 6.5843 20.4937 6.74655ZM7.57994 12.6614C6.99239 13.7775 6.61011 14.9366 6.43311 16.1387C6.39623 16.3797 6.45032 16.4018 6.59536 16.2051C7.78275 14.601 10.2018 13.9041 12.1783 13.5206C14.0835 13.1543 15.8462 12.7327 17.4663 12.2558C17.8547 12.1427 18.2025 11.9472 18.5098 11.6694C18.5849 11.6016 18.6446 11.5183 18.6846 11.4254C18.7246 11.3325 18.744 11.2321 18.7415 11.1312C18.7391 11.0303 18.7148 10.9312 18.6703 10.8408C18.6259 10.7503 18.5623 10.6707 18.484 10.6074C17.2229 9.57982 15.6544 8.86935 13.7787 8.47601C13.233 8.3617 12.6798 8.47601 12.1451 8.35432C10.6037 8.00032 8.21788 11.4519 7.57994 12.6614ZM29.6868 16.2199C29.2406 13.9446 28.363 11.9607 26.8142 10.2092C26.7619 10.1494 26.6898 10.1104 26.6108 10.0989C26.5318 10.0874 26.451 10.1043 26.3828 10.1465C25.0503 10.9823 23.6933 11.9743 22.3117 13.1223C22.115 13.2846 22.0966 13.464 22.2564 13.6607L23.4032 15.0952C23.5483 15.2746 23.7191 15.3041 23.9158 15.1837C25.494 14.2249 27.8799 14.1438 29.0157 15.6704C29.1804 15.8917 29.3549 16.1006 29.5393 16.2973C29.6745 16.4423 29.7237 16.4165 29.6868 16.2199ZM6.44786 17.1565C6.35791 17.3364 6.30642 17.5349 6.29667 17.7391C6.17621 20.5785 7.02066 23.1635 8.83001 25.4941C8.95539 25.6538 9.082 25.6538 9.20983 25.4941C12.7573 21.0714 16.7066 17.0213 21.0579 13.3436C21.0997 13.3092 21.101 13.2723 21.0616 13.2329L19.5571 11.7211C19.5055 11.667 19.4477 11.6608 19.3838 11.7026C16.9943 13.3399 13.9668 13.6755 11.1421 14.306C9.37577 14.7006 7.30337 15.4565 6.44786 17.1565ZM9.4569 26.25C11.4408 28.2523 13.952 29.5909 16.7546 29.838C16.8849 29.8503 17.0053 29.8208 17.1159 29.7495C18.6758 28.7059 19.3764 27.0281 19.7046 25.4867C20.1029 23.6183 20.4888 21.8495 20.8625 20.1803C21.1391 18.945 21.9429 16.6034 23.0197 15.9249C23.2065 15.8069 23.2311 15.6606 23.0935 15.486L21.8692 13.9373C21.7586 13.7947 21.6307 13.7775 21.4857 13.8856C16.9574 17.2819 13.0965 21.5484 9.44215 25.9476C9.40572 25.9905 9.38697 26.0456 9.38971 26.1017C9.39245 26.1579 9.41648 26.2109 9.4569 26.25ZM24.3657 16.2494C26.1984 19.0593 27.8467 21.9134 27.1166 25.3982C27.0723 25.6096 27.1178 25.6305 27.253 25.4609C28.9444 23.3368 29.8023 20.8256 29.8269 17.9272C29.8318 17.2979 29.6315 16.7595 29.2259 16.3121C27.9819 14.9427 26.486 14.5592 24.7381 15.1615C24.6331 15.198 24.5377 15.2579 24.4592 15.3366C24.3808 15.4153 24.3213 15.5108 24.2854 15.6157C24.2495 15.7206 24.238 15.8323 24.2519 15.9421C24.2658 16.0519 24.3047 16.157 24.3657 16.2494ZM20.1545 25.2839C19.83 26.6888 19.1773 28.6543 17.9973 29.5799C17.8326 29.7102 17.8547 29.7839 18.0636 29.8011C20.8035 30.0297 23.7167 28.6653 25.8702 26.8843C28.3777 24.8119 25.8849 18.307 23.8162 16.4116C23.7652 16.3651 23.7036 16.3316 23.6368 16.3143C23.57 16.2969 23.4999 16.2962 23.4327 16.3121C22.2933 16.5812 21.7217 18.4066 21.5004 19.3838C21.0506 21.3677 20.6019 23.3344 20.1545 25.2839Z" fill="#242628"/>
</svg>
