<svg xmlns="http://www.w3.org/2000/svg" width="24" height="35" fill="none"><g clip-path="url(#a)"><path fill="#DE9E36" d="M9.695.106c-3.262.54-6.73 3.057-8.26 5.966C.616 7.638 0 9.876 0 11.292c0 3.637 2.965 10.256 9.043 20.156 1.92 3.17 2.35 3.692 2.778 3.524.69-.26 5.071-7.607 7.943-13.275 3.207-6.358 3.99-9.285 3.263-12.474-1.007-4.587-4.68-8.222-9.118-9.043-1.081-.205-3.244-.242-4.214-.074Zm4.774 3.449c1.491.578 3.057 2.07 3.84 3.655.336.41.71 1.174.71 3.02s-.131 2.237-.71 3.393c-1.845 3.748-6.264 5.258-9.975 3.375-3.86-1.939-5.22-6.88-2.89-10.534 1.902-3.002 5.631-4.214 9.025-2.909Z"/><path fill="#DE9E36" d="M11.56 18.645c4.428 0 8.018-3.798 8.018-8.483 0-4.686-3.59-8.484-8.018-8.484-4.428 0-8.017 3.798-8.017 8.484 0 4.685 3.59 8.483 8.017 8.483Z"/><path fill="#242628" d="M10.644 1.889c-.143.02-.533.092-.871.154-4.306.768-7.536 4.67-7.536 9.094 0 4.373 2.912 8.1 7.126 9.135 1.291.317 3.116.317 4.408 0 3.517-.86 6.254-3.718 6.982-7.271.123-.656.154-1.178.113-2.151-.103-2.601-.974-4.547-2.83-6.36-1.722-1.669-3.69-2.509-6.162-2.611-.533-.02-1.086-.02-1.23.01Zm3.363 1.557c1.353.44 2.266 1.014 3.352 2.11.77.767 1.015 1.095 1.415 1.904.656 1.321.902 2.325.902 3.738.01 1.362-.225 2.386-.83 3.585-.4.819-1.077 1.792-1.292 1.863-.061.02-.287-.225-.512-.553-.8-1.167-2.348-2.17-3.907-2.54-1.179-.286-2.788-.174-3.967.257-1.148.43-2.327 1.29-3.004 2.212-.277.358-.523.655-.574.655-.144 0-1.025-1.29-1.364-1.997-.533-1.096-.758-2.15-.758-3.451 0-1.465.205-2.356.85-3.667.452-.931.646-1.198 1.456-2.007 1.784-1.792 3.599-2.53 6.05-2.457 1.024.03 1.383.092 2.183.348Z"/><path fill="#242628" d="M10.777 4.695A3.894 3.894 0 0 0 8.543 6.13c-1.405 1.905-.749 4.629 1.353 5.694.543.276.687.297 1.67.297.893 0 1.16-.041 1.57-.225.717-.338 1.527-1.158 1.876-1.905.266-.553.297-.748.297-1.608 0-.87-.03-1.034-.297-1.577-.77-1.557-2.574-2.458-4.235-2.11Z"/></g><defs><clipPath id="a"><path fill="#fff" d="M0 0h23.278v35H0z"/></clipPath></defs></svg>