<svg width="124.847" xmlns="http://www.w3.org/2000/svg" height="187.716"  fill="none" viewbox="0 0 30 30"><g style="fill:#000"><g style="fill:#000"><path d="M52 .567c-17.5 2.9-36.1 16.4-44.3 32-4.4 8.4-7.7 20.4-7.7 28 0 19.5 15.9 55 48.5 108.1 10.3 17 12.6 19.8 14.9 18.9 3.7-1.4 27.2-40.8 42.6-71.2 17.2-34.1 21.4-49.8 17.5-66.9-5.4-24.6-25.1-44.1-48.9-48.5-5.8-1.1-17.4-1.3-22.6-.4Zm25.6 18.5c8 3.1 16.4 11.1 20.6 19.6 1.8 2.2 3.8 6.3 3.8 16.2 0 9.9-.7 12-3.8 18.2-9.9 20.1-33.6 28.2-53.5 18.1-20.7-10.4-28-36.9-15.5-56.5 10.2-16.1 30.2-22.6 48.4-15.6Z" style="fill:#252422;fill-opacity:1" class="fills"/></g><ellipse rx="43" ry="45.5" cx="62" cy="54.5" style="fill:#252422;fill-opacity:1" class="fills"/><g style="fill:#000"><path d="M57.088 10.131c-.77.11-2.859.495-4.674.824C29.32 15.075 12 36.001 12 59.729c0 23.454 15.616 43.446 38.215 48.994 6.928 1.703 16.715 1.703 23.643 0 18.86-4.614 33.541-19.938 37.445-38.997.66-3.515.825-6.317.605-11.535-.55-13.951-5.223-24.387-15.176-34.108-9.237-8.953-19.794-13.457-33.046-14.006-2.859-.11-5.828-.11-6.598.054Zm18.035 8.349c7.258 2.362 12.152 5.438 17.98 11.315 4.124 4.119 5.444 5.877 7.588 10.216 3.519 7.085 4.839 12.468 4.839 20.048.055 7.305-1.21 12.798-4.454 19.224-2.144 4.394-5.773 9.612-6.928 9.996-.33.11-1.54-1.208-2.749-2.966-4.289-6.261-12.592-11.644-20.95-13.621-6.323-1.538-14.956-.934-21.279 1.373-6.158 2.307-12.482 6.921-16.111 11.864-1.484 1.922-2.804 3.515-3.079 3.515-.77 0-5.498-6.921-7.313-10.71-2.859-5.877-4.069-11.535-4.069-18.51 0-7.855 1.1-12.633 4.564-19.664 2.419-4.998 3.464-6.426 7.808-10.765 9.567-9.612 19.3-13.567 32.441-13.182 5.499.164 7.423.494 11.712 1.867Z" style="fill:#de9e36;fill-opacity:1" class="fills"/><path d="M57.803 25.181c-4.619.989-9.183 3.9-11.987 7.69-7.533 10.216-4.014 24.826 7.258 30.538 2.914 1.483 3.684 1.593 8.963 1.593 4.783 0 6.213-.22 8.412-1.208 3.849-1.813 8.193-6.207 10.063-10.216 1.429-2.966 1.594-4.01 1.594-8.624 0-4.668-.165-5.547-1.594-8.458-4.124-8.349-13.802-13.182-22.709-11.315Z" style="fill:#de9e36;fill-opacity:1" class="fills"/></g></g></svg>