<svg width="40" height="40" fill="none" xmlns="http://www.w3.org/2000/svg"><path d="M29.5 3.02c-.88.06-1.8.22-2.04.34-.24.14-.78.24-1.22.24-.86 0-1.74.54-2.06 1.28-.1.22-.68 1-1.28 1.72s-1.34 1.78-1.64 2.34c-.32.58-.62 1.06-.7 1.06-.08 0-.48-.42-.9-.92-.76-.9-2.58-2.32-3.8-2.96-.42-.22-.66-.48-.68-.78-.02-.28-.06-.32-.12-.12-.06.28-.24.26-1.42-.18-.98-.36-1.8-.5-3.06-.54-.94-.02-1.82-.1-1.96-.18-.12-.08-.22-.02-.22.12 0 .16-.22.3-.5.32-.28.02-.8.2-1.16.38-.36.18-.76.32-.9.28-.14-.02-.24.08-.2.22.08.4-.64 1.34-.94 1.24-.32-.12-.58.24-.3.42.1.06.2.3.2.52 0 .22-.08.36-.16.3-.08-.04-.12.44-.08 1.1.06.9 0 1.26-.26 1.5-.22.24-.26.38-.1.48.14.08.18.54.12 1.26-.1.96-.06 1.2.28 1.54.22.22.4.62.4.88 0 .28.1.56.2.62.12.06.2.22.2.32 0 .12-.08.14-.2.08-.12-.06-.14.02-.08.2.08.18.26.28.42.22.18-.08.34.02.4.28.06.22.18.34.28.28.1-.06.18-.02.18.08 0 .12.2.16.46.1.42-.08.42-.08.08.2-.24.2-.28.34-.14.44.12.06.18.28.16.46-.04.24.1.36.5.4.48.06.54.14.54.86 0 .48.08.76.2.68.12-.06.2-.34.2-.62 0-.26.08-.48.18-.48.1 0 .16.26.12.58-.06.48-.02.58.24.48.22-.08.28-.04.18.1-.1.16 0 .24.26.24.3 0 .38.08.28.34-.14.34-.12.34.22 0 .48-.46.86-.42 1.02.1.08.26.28.66.44.92.24.38.34.42.58.22.44-.36.64.04.78 1.62.18 1.82.24 2.06.28.86 0-.56.1-1.08.2-1.14.08-.06.64.64 1.22 1.54s1.68 2.54 2.4 3.64c.74 1.1 1.74 2.74 2.2 3.64.54 1 1.04 1.7 1.34 1.84.46.2.48.28.34 1.48-.14 1.34-.14 1.32-.1 1.68.04.56.42.22.42-.4 0-.34.06-1.1.12-1.66.12-.92.18-1.04.6-1.04.82.02.96.4.82 2.56-.06 1.1-.04 2 .04 2 .1 0 .24-.94.32-2.1.12-1.88.18-2.1.52-2.1.2 0 .38-.1.38-.22 0-.16.1-.14.3.02.26.22.28.2.18-.06-.08-.2.08-.5.38-.78.38-.36.46-.56.32-.8-.24-.42.18-.74.44-.34.12.18.18.2.18.04 0-.12-.1-.3-.2-.36-.16-.1-.14-.22.02-.42.12-.14.3-.22.4-.16.1.06.18.02.18-.08s.2-.28.46-.42c.24-.12.28-.2.1-.14a.35.35 0 0 1-.44-.22c-.08-.22-.04-.28.18-.18.26.08.28.04.1-.28-.14-.26-.14-.42.02-.5.12-.08.16-.26.1-.42-.14-.38.28-.6.5-.26.12.2.18.16.18-.18 0-.26-.12-.44-.3-.44-.38 0-.38-.18 0-.68.16-.22.3-.6.3-.86 0-.32.14-.48.5-.58.48-.12.72-.48.32-.48-.1 0-.08-.22.04-.5.16-.3.36-.46.54-.4.2.06.16 0-.06-.18-.36-.28-.32-.38.66-2.24a40.11 40.11 0 0 1 1.78-3.06c.42-.62 1.12-1.8 1.58-2.62 2.04-3.8 2.02-3.76 2.06-3.1.02.5.06.46.22-.3.34-1.52.84-3.2.96-3.2.32 0-.08-2.58-.54-3.46-.4-.82-.44-1.02-.22-1.3.24-.3.22-.32-.1-.06s-.44.2-1.2-.52c-.46-.46-1.16-.98-1.54-1.16-.38-.2-.74-.42-.8-.48-.06-.06-.82-.06-1.7 0ZM10.12 20.24c-.32.18-.72.06-.72-.22 0-.1.24-.12.52-.06.44.08.48.12.2.28Z" fill="#000"/><path d="M20.94 7.08c-.12.32.04.56.28.4.24-.14.22-.68 0-.68-.1 0-.22.12-.28.28ZM3.52 9.34c-.12.28-.1.3.1.12.14-.14.2-.3.14-.36s-.18.04-.24.24ZM3.3 11.8c-.06.1-.02.2.08.2.12 0 .22-.1.22-.2 0-.12-.04-.2-.08-.2-.06 0-.16.08-.22.2ZM34.42 15.08c-.02.52.04.74.18.6.12-.12.12-.42.02-.78-.18-.6-.18-.6-.2.18ZM32.74 18.3c-.08.16-.04.34.06.4.12.08.2-.06.2-.28 0-.5-.12-.54-.26-.12ZM27.34 26.82c.14.14.3.2.36.14s-.04-.18-.24-.24c-.28-.12-.3-.1-.12.1Z" fill="#000"/></svg>