<svg width="100" height="100" fill="none" xmlns="http://www.w3.org/2000/svg"><path d="M52.395 7.24c-2.75 3.4-2.4 8.6.65 10.55.55.3 1 .9 1 1.25 0 .85-1.9 4.6-5.9 11.5-4.85 8.5-6.75 13.45-8.85 22.85l-.3 1.45-1.05-1.7c-6.15-10.25-18-26.55-21.5-29.6-1.45-1.25-1.5-1.35-.7-2.45 1.15-1.7 1-3.1-.55-4.55-2.3-2.2-7.15-3.35-7.15-1.75 0 .4-.45 1.1-1 1.6-2.35 2.15-.5 6 3.2 6.6 1.75.25 2 .55 3.85 4.25 1.1 2.15 2.75 6.2 3.65 9.05.95 2.8 2.4 7.1 3.3 9.55.85 2.45 1.45 4.75 1.3 5.1-.1.3 0 .8.25 1.05.6.6 1.95 7.65 1.95 10.2 0 1.85-.1 1.95-1.45 1.95-1.75 0-2.4.75-1.55 1.75.4.5 1.55.75 3.25.75 2.2 0 2.7.15 2.9 1 .4 1.45 2.85 1.4 2.85-.05v-1.1l20.15.45c11.05.25 21.8.45 23.85.45h3.75l.3-8.5c.35-9.2 1.25-15.4 3.45-24 2.2-8.5 3.05-10.45 4.55-10.65 1-.1 1.4.1 1.65 1 .55 2.1.35 9.15-.3 9.8-.45.45-.25.6 1 .6h1.6v-2.7c0-1.7.25-2.8.65-2.95.35-.15.25-.3-.25-.3-.75-.05-.9-.5-.9-2.6 0-2.35.15-2.65 2.25-4.6 2.8-2.55 3.35-4.75 1.8-7.15-1.1-1.8-5.65-4.2-7.9-4.2-3.25 0-4.95 3.05-4.5 8l.25 2.8-4 3.25c-7.2 5.7-13.4 13.1-19.2 22.75-.45.75-.65.05-.95-3.8-.5-6.95-.15-25.95.55-26.4.3-.2.8-.85 1.15-1.45 2.35-4.5-4.1-12.75-7.1-9.05Zm5.5 2.95c.95.8.8 2.1-.4 3.65-1.4 1.75-3.2 2.45-4.5 1.8-1.25-.7-1.2-1.65.15-4.35 1-2.05 1.25-2.2 2.6-1.95.8.15 1.75.55 2.15.85Zm32.15 5.45c1.7 1.15 1.85 3 .4 4.35-1.85 1.65-3.55 1.8-4.9.4-.95-1-1.1-1.55-.8-3.3.2-1.15.45-2.3.6-2.5.35-.6 3.25 0 4.7 1.05Zm-77 3.55c0 .9-1.35 1.95-2.5 1.95-.3 0-.75-.6-1.05-1.3-.35-1.05-.3-1.6.35-2.55l.8-1.25 1.2 1.15c.65.6 1.2 1.55 1.2 2Zm42.25 33.55c.6 6.25 2.55 6.7 4.75 1.05 1.7-4.35 5-10.15 5.8-10.15.3 0 .55-.4.5-.85-.1-1.25 1.5-1.4 1.85-.15.15.55.5 1 .75 1 .35 0 .35-.55 0-1.7-.5-1.5-.35-1.85 1.4-4.25 1.05-1.4 2.3-2.55 2.75-2.55.6 0 .8-.3.6-.9-.15-.65.85-1.85 3.4-4.1 3-2.7 3.55-3 3.35-2-.2.7-.9 3.5-1.6 6.25-2 7.55-2.9 13.65-3.25 22.5l-.3 8-1.25-.1c-.7 0-10.85-.25-22.65-.45-21.1-.35-21.35-.35-21.6-1.4-.15-.6-.5-2.15-.75-3.5-.85-3.9-3.9-13-6.85-20.3-4-9.95-3.9-9.55-2.35-7.75 3.15 3.75 10.35 14.2 14.6 21.2 2.55 4.25 4.9 7.95 5.25 8.15 1.3.8 1.8.35 2.1-2 .6-4.6 1.75-9.65 3-13.5 1.25-3.7 5.5-12.25 8.2-16.35l1.3-2 .3 11c.2 6.05.5 12.75.7 14.85Z" fill="#000"/><path d="M86.545 28.14c0 .25.35.5.75.5s.75-.25.75-.5c0-.3-.35-.5-.75-.5s-.75.2-.75.5ZM75.045 71.74c0 .4-1.75.45-6.45.25-10.15-.5-37.8 1.05-43.9 2.4-1.25.3-1.65 2.45-.5 2.85.3.15 2.95-.05 5.85-.4 2.9-.35 7.4-.75 10-.95l4.75-.3-5.7 1.55c-5.7 1.45-8.75 3-6 3 .7 0 1.45.2 1.75.45.25.25 1.3.65 2.35.8 1.55.3 1.8.25 1.55-.4-.25-.7 1.1-.8 11.6-.8 6.5-.05 11.75.1 11.6.2-.15.15-4.4 1.4-9.45 2.8-5.05 1.35-9.2 2.55-9.25 2.6-.05.05.15 2.05.45 4.45.45 3.6.7 4.4 1.5 4.6 1.95.5 2.2 0 1.75-3.95-.2-2.05-.45-4-.5-4.3-.1-.35 3.75-1.65 10.1-3.4 5.65-1.55 10.65-3 11.15-3.2 1.75-.65.8-1.35-1.9-1.35-1.85 0-2.75-.2-2.75-.65s-.15-.4-.45.1c-.5.75-3.05.4-3.05-.45 0-.3-.35-.5-.75-.5s-.75.2-.75.5-3.25.5-8.85.45c-8.9-.05-8.9-.05-5.7-.75 1.8-.4 4.15-.8 5.25-.9 1.15-.15 2.6-.35 3.3-.55 2.3-.55 7.7-.85 17.5-.9 9.4-.1 9.75-.15 9.75-1.1 0-.7-.5-1.15-1.6-1.5-.9-.25-1.65-.65-1.65-.85 0-.2-.2-.4-.5-.4-.25 0-.5.25-.5.6Z" fill="#000"/></svg>