<svg width="18" height="16" fill="none" xmlns="http://www.w3.org/2000/svg"><path d="M8.432.751c-.196.289-.587 1.146-1.184 2.637-.214.54-.493 1.192-.615 1.453l-.223.485-2.097-.047C1.583 5.214.69 5.372.68 5.913c0 .354.727 1.127 2.282 2.413.513.42 1.174.997 1.473 1.286l.55.512-.15.568c-.084.317-.251.904-.372 1.314-.587 1.947-.709 2.422-.709 2.767 0 .457.14.727.373.727.224 0 1.193-.512 2.413-1.295 1.128-.708 3.01-1.78 3.14-1.78.056 0 .242.15.42.336.167.186.875.857 1.546 1.49.941.876 1.314 1.165 1.565 1.212.56.102.615-.019.56-1.211-.085-1.706-.439-4.36-.662-4.948-.037-.074.335-.335 1.1-.745 2.114-1.156 2.664-1.519 2.84-1.864.122-.223.01-.559-.204-.643-.457-.177-1.435-.326-2.47-.372-1.583-.084-2.869-.242-2.971-.373-.047-.056-.252-.522-.457-1.034C10.24 2.503 9.512.919 9.317.704c-.27-.288-.662-.27-.885.047Z" fill="#000"/></svg>