<svg width="25" xmlns="http://www.w3.org/2000/svg" height="25" style="-webkit-print-color-adjust:exact" fill="none"><g class="ionicon" style="fill:#000"><path fill="none" d="M14.453 3.125h-3.906a.39.39 0 0 0-.278.113.39.39 0 0 0-.113.278v1.172h4.688V3.516a.39.39 0 0 0-.113-.278.39.39 0 0 0-.278-.113Z" style="fill:#fafaff;fill-opacity:1" class="fills"/><path d="M21.094 4.688h-4.688V3.516a1.953 1.953 0 0 0-1.953-1.953h-3.906a1.953 1.953 0 0 0-1.953 1.953v1.172H3.906a.78.78 0 1 0 0 1.562h.83l.928 14.889c.069 1.311 1.074 2.299 2.344 2.299h8.984c1.276 0 2.261-.966 2.344-2.295l.928-14.893h.83a.781.781 0 0 0 0-1.562ZM9.403 20.313Zc-.449 0-.794-.333-.809-.754L8.203 8.622a.781.781 0 0 1 1.563-.056l.39 10.937a.783.783 0 0 1-.753.81Zm3.878-.782a.782.782 0 1 1-1.562 0V8.594a.78.78 0 1 1 1.562 0Zm1.563-14.843h-4.688V3.516a.39.39 0 0 1 .113-.278.39.39 0 0 1 .278-.113h3.906a.39.39 0 0 1 .278.113.39.39 0 0 1 .113.278Zm1.562 14.871a.781.781 0 0 1-.781.754h-.028a.783.783 0 0 1-.753-.81l.39-10.937a.783.783 0 0 1 1.563.056Z" style="fill:#fafaff;fill-opacity:1" class="fills"/></g></svg>