<svg xmlns="http://www.w3.org/2000/svg" width="300" height="300" fill="none" style="-webkit-print-color-adjust:exact"><g style="fill:#000"><path d="M113 262c-15-18-22-55-22-55l-2-82 4-13 21-6 9-21V67l-4-18 1-11 5-2c1 .5 3-.5 3-.5l1 2.5-1 4.5v6l2.5 10 2 6L135 70l7 8.5c11.5 3.5 18 4.5 18 4.5l10.5-6.5 14-39.5 4-1 7.5 2.5-3.5 11.5-2.5 6.5-1.5 13.5-1.5 4.5 4 29.5 16 10 6 5-8 50 6 68-9 12-12 6-23 8-24-2-17 3h-11l-2-2Z" class="fills" style="fill:#de9e36;fill-opacity:1"/><g class="strokes"><path d="M113 262c-15-18-22-55-22-55l-2-82 4-13 21-6 9-21V67l-4-18 1-11 5-2c1 .5 3-.5 3-.5l1 2.5-1 4.5v6l2.5 10 2 6L135 70l7 8.5c11.5 3.5 18 4.5 18 4.5l10.5-6.5 14-39.5 4-1 7.5 2.5-3.5 11.5-2.5 6.5-1.5 13.5-1.5 4.5 4 29.5 16 10 6 5-8 50 6 68-9 12-12 6-23 8-24-2-17 3h-11l-2-2Z" class="stroke-shape" style="fill:none;stroke-width:2;stroke:#000;stroke-opacity:1"/></g><g style="fill:#000"><path d="M120.3 35.1c-6 1.7-6 5-.1 31.6 1.6 7.4.5 20.2-2.2 25.8-1.2 2.5-4 6.1-6.2 8-3.9 3.3-6.2 4.3-16.7 7.6-9.9 3.1-10.5 6.9-9.2 61.9.9 37.4 1.3 43.5 3 50.5 1.2 4.4 2.1 9.7 2.1 11.8 0 4.6 5.1 17.7 8.7 22.7 7.7 10.4 14.8 12.3 35.8 9.5 10-1.4 14.9-1.5 21.1-.8 7.8.8 17.1-.1 27.4-2.7 5.1-1.4 25-14.9 27.7-18.9 2.6-3.9 3-12 1.3-27.6-3.1-27.2-2.8-71.1.5-86.7.9-4.2 1.5-9.6 1.3-12-.3-4-.6-4.5-4.8-6.5-6-3-10.6-8.2-12.1-13.5-1.9-7.2-.6-21.8 3-32.9 3.2-9.9 3.9-17.5 2-21.1-1.4-2.6-11-6.8-15.5-6.8-2.7 0-4.3.7-6.3 2.9-3.1 3.4-4.5 7.4-6.6 19.6-.9 4.8-2.2 9.9-3 11.4-5 9.8-20.6 13.7-24.2 6-.7-1.4-2.2-8.8-3.3-16.4-1.2-7.8-2.9-15.3-3.9-17-3.8-6.5-11.1-8.9-19.8-6.4Zm7 6.3c-1.5 18.4 5.5 37 15.4 41.2 4.4 1.9 18.4 1.8 23.1-.1 7.8-3.3 10.2-7.7 12.7-22.9 1.7-10.3 6.2-22.2 8.9-23.2.8-.3 3.1-.1 5 .6l3.4 1.1-2.9 6.2c-5.8 12.5-9.9 38.1-7.9 50.1 1.8 11.3 5.8 15.7 17.3 19.2 3.2 1 6.3 2.6 6.8 3.6.7 1.3-.1 8.4-2.7 24.1-3.6 21.5-3.6 22.7-3.1 40.2.5 15 2.7 36.6 5.2 52.5.7 4.2-1.7 8.6-6.7 12l-3.3 2.3 3.9-4.1c3.7-3.9 3.8-4.2 2.6-7.1-2.3-5.7-3.1-5.7-13.2 0-5.1 2.9-9.5 5.4-9.7 5.6-.2.1.1 2.1.8 4.4.9 3.1 2 4.4 4.1 5.2l2.9 1.1-3.3 2.3c-6.2 4.2-20.6 6.6-34.2 5.7-10.1-.7-10.6-.9-6.5-1.7 3-.6 5.7-.5 8.2.2 4.7 1.4 8.6 1.4 9.5 0 .4-.7 0-.9-1.4-.5-1.2.4-3.8.2-5.9-.4-4.4-1.3-30.9.2-32.5 1.8-.6.6 1.5.9 5.9.6 5.8-.3 6.2-.2 2.8.6-2.2.5-7.2.9-11.2.9-7.1.1-7.1.1-10-3.6-5.1-6.6-7.1-10.7-10.7-21.4-4.4-13.2-6.5-29.8-8.7-69.9-1.5-28.9-1.6-43.1-.1-46.7 1.5-3.3 2.6-3.9 13.9-7.2 8.7-2.6 12.3-5.9 16.7-15.1 3.1-6.5 3.1-6.6 3-22.5-.1-12-.6-18.5-2.2-26.1-2.3-11.1-2.1-14.1 1.2-14.7 1.1-.2 2.4-.5 2.7-.6.4 0 .4 2.8.2 6.3Z" class="fills" style="fill:#252422;fill-opacity:1"/><path d="M181 102.6c0 2.3 4.7 7.5 8.9 9.7 6.2 3.4 13.1 5.9 13.1 4.7 0-.4-1.7-1.4-3.7-2-6.8-2.2-13.3-6.3-15.4-9.7-2-3.2-2.9-4-2.9-2.7Zm-47.6 16.1c-3.2.3-4.9 1.3-7.9 4.2-3.6 3.7-3.7 4.2-4.2 12.2-.7 11.9 1.8 24.4 5.6 28.3 2.6 2.5 3.7 2.9 11.2 3.3 8 .5 8.5.4 10.7-2 2.2-2.4 2.3-2.8 1.2-8.8-.7-3.5-1.2-12.2-1.2-19.4.1-12.7 0-13-2.5-15.7-2.7-2.9-3.3-3-12.9-2.1Zm11.7 2.9c2.3 2.4 2.4 3.2 2.6 17.2.1 8.1.6 16.5 1.2 18.7.9 3.5.7 4.2-1.2 6.4-2.1 2.2-2.7 2.3-9.6 1.7-10.2-.8-12.3-2.8-14.5-13.9-2.7-13.6-1.9-22 2.6-27.7 2.5-3.2 3.4-3.6 9-4.1 3.5-.3 6.6-.7 6.9-.7.3-.1 1.6 1 3 2.4Z" class="fills" style="fill:#252422;fill-opacity:1"/><path d="M128.7 126.7c-1.1 1-.7 17.1.6 25.3l1.2 7.5 6.5.7c3.5.4 6.6.6 6.7.4.2-.2-.3-4.3-1.2-9.1-.8-4.8-1.5-12.5-1.5-17.1V126h-5.8c-3.2 0-6.2.3-6.5.7Zm11.6 13c.3 7.1 1 14.3 1.6 16.1l1 3.3-5.7-.3-5.7-.3-1.2-8c-1.6-10.6-1.6-20.8-.1-22.3.7-.7 3.1-1.2 5.4-1.2h4.1l.6 12.7Zm19.4-17.2c-3.6 4.5-4.1 8.9-1.1 9.3 2 .3 2.1.9 2.1 9.5-.1 5.1.3 11.3.7 13.9l.7 4.8h-3.4c-3.5 0-3.5 0-2.7 3.6.5 1.9 1 3.7 1.2 3.9.2.2 5.1.1 10.8-.3l10.5-.7.3-3.8.3-3.7h-3.9c-3.3 0-4.1-.4-4.6-2.3-1.5-5.6-1.8-16.3-.6-25.2 1.4-10.6 1.2-11.3-4.1-12.1-3-.5-3.7-.1-6.2 3.1Zm10.1-1c.2.2-.1 3.5-.7 7.4-1.4 8.9-1.4 19.6 0 26.1 1.1 5 1.1 5 5 5 3.5 0 3.9.3 3.9 2.5 0 3-3.2 3.8-13.5 3.3-6.4-.3-7-.5-7.3-2.6-.3-1.9.1-2.2 2.9-2.2h3.2l-.7-5.3c-.3-2.8-.6-9.6-.6-14.9 0-8.8-.2-9.7-2-10.3-2.7-.9-2.5-3.7.6-7.5 2.3-2.7 3.1-3 5.8-2.4 1.7.3 3.3.8 3.4.9Zm-74.4 8.7c-.5.7-1.1 7.5-1.2 15.2-.4 13.9.3 22.6 1.7 22.6.4 0 .4-2.4 0-5.3-1.1-7.7-1-21.6.1-27.7 1-5.5.8-7.1-.6-4.8Z" class="fills" style="fill:#252422;fill-opacity:1"/></g></g></svg>