<svg width="30" height="30" fill="none" xmlns="http://www.w3.org/2000/svg"><path d="M17.4 1.56c-1.32.39-2.085.765-3.09 1.53-2.64 1.965-3.39 3.465-2.295 4.545.39.39.57.465 1.215.465.72 0 .78-.03 1.965-1.17 1.44-1.365 1.965-1.71 3.165-2.055 2.76-.795 5.73.555 6.96 3.195.36.75.405 1.035.405 2.43 0 1.44-.045 1.65-.435 2.475-.27.525-.9 1.365-1.605 2.1-.645.675-1.245 1.41-1.335 1.635-.375.99.555 2.19 1.695 2.19.6 0 .705-.075 2.13-1.545 2.445-2.475 3.165-4.215 3.03-7.305-.09-2.085-.42-3.15-1.485-4.755-1.26-1.86-3.405-3.36-5.55-3.87-1.41-.33-3.42-.27-4.77.135Z" fill="#000"/><path d="m14.22 13.77-5.07 5.055v.735c0 .615.075.795.51 1.23.42.42.63.51 1.14.51.75 0 .72.03 6.72-5.925 4.35-4.305 4.545-4.575 4.23-5.55-.255-.765-.795-1.125-1.695-1.125h-.765l-5.07 5.07Z" fill="#000"/><path d="M6.45 11.055c-.51.105-2.805 2.46-3.48 3.57-.855 1.41-1.2 2.625-1.29 4.425-.12 2.805.705 4.935 2.655 6.9 1.92 1.92 3.93 2.76 6.615 2.76 2.76 0 4.62-.81 6.87-2.97 1.455-1.41 1.725-1.905 1.5-2.715-.21-.78-.78-1.2-1.605-1.2-.69 0-.765.045-2.04 1.23-1.455 1.38-2.4 1.92-3.795 2.175-2.475.465-5.115-.945-6.24-3.33-.42-.885-.465-1.11-.465-2.475 0-1.35.045-1.59.435-2.385.255-.525.93-1.395 1.665-2.19 1.365-1.44 1.575-1.905 1.215-2.745-.33-.81-1.14-1.215-2.04-1.05Z" fill="#000"/></svg>